<?xml version="1.0" encoding="UTF-8"?>
<svg id="Layer_2" data-name="Layer 2" xmlns="http://www.w3.org/2000/svg" viewBox="0 0 370.61 29.47">
  <defs>
    <style>
      .cls-1 {
        fill: #fff;
        stroke-width: 0px;
      }
    </style>
  </defs>
  <g id="Layer_1-2" data-name="Layer 1">
    <g>
      <path class="cls-1" d="M38.53,11.16l3.02.16c.91,3.02,1.31,5.92,1.31,8.9s-.36,5.76-1.31,8.78c-6.99.28-14.14.44-20.97.44-3.77,0-9.97-.24-20.57-.44V.48C9.93.28,15.53.04,19.14.04c5.8,0,12,.08,18.03.44,1.03,2.74,1.55,5.4,1.55,8.02,0,.87-.08,1.79-.2,2.66ZM11.16,22.72c3.02.24,5.64.28,9.41.28,4.29,0,7.43-.04,10.88-.24.24-.87.32-1.63.32-2.54s-.08-1.79-.32-2.66c-2.5-.16-4.89-.16-7.59-.16h-12.71v5.32ZM11.2,10.72h9.25c1.31,0,2.66,0,4.05.04.75-.04,1.51-.08,2.34-.16.2-.71.32-1.39.32-2.1,0-.75-.08-1.27-.24-2.03-1.75-.16-3.38-.16-5.32-.16h-2.54c-3.26,0-5.4.12-7.86.28v4.13Z"/>
      <path class="cls-1" d="M68.52,29.47c-7.23,0-14.38-.4-21.65-1.31-.36-4.57-.56-8.9-.56-13.42s.2-8.86.56-13.42c7.27-.91,14.42-1.31,21.65-1.31s14.38.4,21.65,1.31c.36,4.57.56,8.9.56,13.42s-.2,8.86-.56,13.42c-7.27.91-14.42,1.31-21.65,1.31ZM58.87,20.73c3.14.32,6.47.48,9.65.48s6.51-.16,9.65-.48c.24-2.07.36-3.93.36-6s-.12-3.93-.36-6c-3.14-.32-6.47-.48-9.65-.48s-6.51.16-9.65.48c-.24,2.07-.36,3.93-.36,6s.12,3.93.36,6Z"/>
      <path class="cls-1" d="M117.46,29.47c-7.23,0-14.38-.4-21.65-1.31-.36-4.57-.56-8.9-.56-13.42s.2-8.86.56-13.42c7.27-.91,14.42-1.31,21.65-1.31s14.38.4,21.65,1.31c.36,4.57.56,8.9.56,13.42s-.2,8.86-.56,13.42c-7.27.91-14.42,1.31-21.65,1.31ZM107.81,20.73c3.14.32,6.47.48,9.65.48s6.51-.16,9.65-.48c.24-2.07.36-3.93.36-6s-.12-3.93-.36-6c-3.14-.32-6.47-.48-9.65-.48s-6.51.16-9.65.48c-.24,2.07-.36,3.93-.36,6s.12,3.93.36,6Z"/>
      <path class="cls-1" d="M155.83,19.18v9.85h-11.56V.44h11.56v10.21c1.31.04,2.94.08,4.53.08,1.67,0,4.09-.08,5.16-.16L176.29.44h13.35l-14.78,14.46,15.65,14.14h-13.38l-11.6-9.77c-1.07-.08-3.5-.16-5.16-.16s-3.22.04-4.53.08Z"/>
      <path class="cls-1" d="M237.06,29.03h-11.56v-.04l-18.43-20.06c-.83-.08-1.47-.08-2.22-.08v20.18h-11.6V.44h1.35c6.2,0,11.96.16,19.5.56l11.4,13.11V.44h11.56v28.6Z"/>
      <path class="cls-1" d="M272.53,17.75h-19.62v3.69c4.53.04,9.61.04,14.14.04,4.77,0,10.41,0,15.21-.48v7.94c-6.79.4-13.23.52-19.86.52s-14.22-.12-21.09-.52V.52c7.39-.4,15.25-.52,22.64-.52,6.04,0,11.92.12,18.15.52v7.94c-5.12-.48-11.52-.48-16.56-.48-4.13,0-8.58,0-12.63-.04v3.93h19.58l.04,5.88Z"/>
      <path class="cls-1" d="M286.72,16.88c-.64-2.7-.87-5-.87-7.63,0-2.86.28-5.28.87-8.14,6.59-.79,13.15-1.07,19.62-1.07s13.15.12,19.82.67v7.23c-4.53-.2-8.78-.48-14.78-.48-5.64,0-9.65.2-14.02.52-.08.36-.16.83-.16,1.31,0,.4.08.68.16,1.15,9.57.48,19.22.12,28.95,2.06.6,2.74.83,4.93.83,7.67s-.24,5.32-.83,8.18c-6.67.79-13.31,1.07-19.9,1.07s-13.07-.16-19.7-.68v-7.23c4.61.24,9.02.44,15.25.44,5.6,0,9.61-.2,13.54-.48.12-.36.2-.79.2-1.35,0-.48-.08-.83-.2-1.27-9.69-.28-19.06-.24-28.8-1.99Z"/>
      <path class="cls-1" d="M370.61,8.78c-7.94-.24-12.59-.36-15.65-.4v20.65h-11.6V8.38c-3.1.04-7.71.16-15.65.4V.56c7.19-.4,14.3-.52,21.45-.52s14.26.12,21.45.52v8.22Z"/>
    </g>
  </g>
</svg>